<?xml version="1.0" standalone="no"?>
<!DOCTYPE svg PUBLIC "-//W3C//DTD SVG 20010904//EN"
 "http://www.w3.org/TR/2001/REC-SVG-20010904/DTD/svg10.dtd">
<svg version="1.0" xmlns="http://www.w3.org/2000/svg"
 width="512.000000pt" height="512.000000pt" viewBox="0 0 512.000000 512.000000"
 preserveAspectRatio="xMidYMid meet">

<g transform="translate(0.000000,512.000000) scale(0.100000,-0.100000)"
fill="#000000" stroke="none">
<path d="M2283 4145 c-88 -24 -155 -64 -225 -136 l-67 -68 -38 16 c-143 60
-279 56 -415 -13 -67 -34 -168 -135 -202 -202 -52 -102 -56 -140 -56 -487 l0
-320 -187 -240 c-134 -172 -197 -263 -224 -320 -107 -228 -85 -490 58 -701 31
-46 334 -393 453 -518 181 -191 415 -312 672 -346 56 -8 261 -10 618 -7 448 3
546 7 601 20 446 108 756 419 866 866 14 58 17 169 20 884 3 544 0 837 -7 875
-17 91 -62 176 -133 246 -146 147 -337 184 -530 103 l-38 -16 -67 68 c-150
152 -340 190 -535 108 l-38 -16 -67 68 c-37 38 -91 80 -119 95 -109 55 -233
69 -340 41z m205 -332 c14 -10 35 -32 46 -47 20 -26 21 -43 24 -297 l3 -269
159 0 159 0 3 189 c3 173 5 192 24 217 39 53 71 69 134 69 63 0 95 -16 134
-69 19 -25 21 -44 24 -217 l3 -189 159 0 158 0 4 109 c2 92 6 114 24 137 39
53 71 69 134 69 63 0 95 -16 134 -69 21 -27 21 -37 24 -812 2 -743 1 -789 -17
-879 -63 -308 -309 -553 -618 -616 -90 -19 -129 -20 -622 -17 -511 4 -528 5
-600 26 -138 42 -266 119 -358 214 -28 29 -138 152 -243 273 -234 268 -255
304 -255 440 1 106 17 149 98 258 l52 71 3 -82 3 -82 159 0 160 0 2 669 c3
658 3 670 24 697 39 53 71 69 134 69 63 0 95 -16 134 -69 19 -25 21 -44 24
-217 l3 -189 160 0 159 0 0 254 c0 156 4 266 11 283 14 37 47 72 84 89 40 19
119 12 153 -13z"/>
</g>
</svg>
